<!DOCTYPE svg PUBLIC "-//W3C//DTD SVG 1.1//EN" "http://www.w3.org/Graphics/SVG/1.1/DTD/svg11.dtd">
<!-- Uploaded to: SVG Repo, www.svgrepo.com, Transformed by: SVG Repo Mixer Tools -->
<svg version="1.1" id="Layer_1" xmlns="http://www.w3.org/2000/svg" xmlns:xlink="http://www.w3.org/1999/xlink" viewBox="0 0 512.517 512.517" xml:space="preserve" width="800px" height="800px" fill="#000000">
<g id="SVGRepo_bgCarrier" stroke-width="0"/>
<g id="SVGRepo_tracerCarrier" stroke-linecap="round" stroke-linejoin="round"/>
<g id="SVGRepo_iconCarrier"> <g transform="translate(1 1)"> <g> <path style="fill:#ccebff;" d="M502.742,503.001c-0.826,0-1.652,0-2.477-0.826L120.394,370.046 c-4.129-1.652-6.606-6.606-4.955-10.735s6.606-6.606,10.735-4.955l379.871,132.129c4.129,1.652,6.606,6.606,4.955,10.735 C509.348,500.523,506.045,503.001,502.742,503.001z"/> <path style="fill:#ccebff;" d="M23.774,503.001c-3.303,0-6.606-2.477-7.432-5.781c-1.652-4.129,0.826-9.084,4.955-10.735 l379.871-132.129c4.129-1.652,9.084,0.826,10.735,4.955c1.652,4.129-0.826,9.084-4.955,10.735L27.077,502.175 C25.426,503.001,24.6,503.001,23.774,503.001z"/> </g> <g> <path style="fill:#e1e7ed;" d="M106.355,337.839c0,27.252-22.297,49.548-49.548,49.548S7.258,365.091,7.258,337.839 c0-27.252,22.297-49.548,49.548-49.548S106.355,310.588,106.355,337.839"/> <path style="fill:#e1e7ed;" d="M461.452,337.839c0,27.252-22.297,49.548-49.548,49.548c-4.955,0-24.774-22.297-24.774-49.548 c0-27.252,19.819-49.548,24.774-49.548C439.155,288.291,461.452,310.588,461.452,337.839"/> </g> <path style="fill:#bdaa86;" d="M436.677,288.291c-4.129,0-8.258,0.826-12.387,1.652c21.471,5.781,37.161,24.774,37.161,47.897 c0,23.123-15.69,42.116-37.161,47.897c4.129,0.826,8.258,1.652,12.387,1.652c27.252,0,49.548-22.297,49.548-49.548 C486.226,310.588,463.929,288.291,436.677,288.291"/> <path style="fill:#FFFFFF;" d="M56.806,288.291c4.129,0,8.258,0.826,12.387,1.652c-21.471,5.781-37.161,24.774-37.161,47.897 c0,23.123,15.69,42.116,37.161,47.897c-4.129,0.826-8.258,1.652-12.387,1.652c-27.252,0-49.548-22.297-49.548-49.548 C7.258,310.588,29.555,288.291,56.806,288.291"/> <path style="fill:#ccebff;" d="M387.129,180.936c0,90.839-74.323,165.161-165.161,165.161 c-69.368,0-132.129-74.323-132.129-165.161S152.6,15.775,221.968,15.775C312.806,15.775,387.129,90.097,387.129,180.936"/> <path style="fill:#137cba;" d="M246.742,15.775c-4.129,0-8.258,0-12.387,0.826c85.058,5.781,152.774,77.626,152.774,164.335 s-67.716,158.555-152.774,164.335c4.129,0,8.258,0.826,12.387,0.826c90.839,0,165.161-74.323,165.161-165.161 S337.581,15.775,246.742,15.775"/> <path style="fill:#FFFFFF;" d="M246.742,15.775c4.129,0,8.258,0,12.387,0.826c-85.058,5.781-152.774,77.626-152.774,164.335 s67.716,158.555,152.774,164.335c-4.129,0.826-8.258,0.826-12.387,0.826c-90.839,0-165.161-74.323-165.161-165.161 S155.903,15.775,246.742,15.775"/> <path style="fill:#ccebff;" d="M271.516,15.775c-4.129,0-8.258,0-12.387,0.826c85.058,5.781,152.774,77.626,152.774,164.335 s-67.716,158.555-152.774,164.335c4.129,0,8.258,0.826,12.387,0.826c90.839,0,165.161-74.323,165.161-165.161 S362.355,15.775,271.516,15.775"/> <path d="M246.742,354.355c-95.794,0-173.419-77.626-173.419-173.419S150.948,7.517,246.742,7.517s173.419,77.626,173.419,173.419 S342.535,354.355,246.742,354.355z M246.742,24.033c-86.71,0-156.903,70.194-156.903,156.903s70.194,156.903,156.903,156.903 s156.903-70.194,156.903-156.903S333.452,24.033,246.742,24.033z"/> <path d="M56.806,395.646C24.6,395.646-1,370.046-1,337.839s25.6-57.806,57.806-57.806s57.806,25.6,57.806,57.806 S89.013,395.646,56.806,395.646z M56.806,296.549c-23.123,0-41.29,18.168-41.29,41.29c0,23.123,18.168,41.29,41.29,41.29 s41.29-18.168,41.29-41.29C98.097,314.717,79.929,296.549,56.806,296.549z"/> <path d="M486.226,503.001c-0.826,0-1.652,0-2.477-0.826L103.877,370.046c-4.129-1.652-6.606-6.606-4.955-10.735 s6.606-6.606,10.735-4.955l379.871,132.129c4.129,1.652,6.606,6.606,4.955,10.735C492.832,500.523,489.529,503.001,486.226,503.001 z"/> <path d="M40.29,354.355c-4.955,0-8.258-3.303-8.258-8.258c0-18.168,14.865-33.032,33.032-33.032c4.955,0,8.258,3.303,8.258,8.258 s-3.303,8.258-8.258,8.258c-9.084,0-16.516,7.432-16.516,16.516C48.548,351.052,45.245,354.355,40.29,354.355z"/> <path d="M436.677,395.646c-32.206,0-57.806-25.6-57.806-57.806s25.6-57.806,57.806-57.806s57.806,25.6,57.806,57.806 S468.884,395.646,436.677,395.646z M436.677,296.549c-23.123,0-41.29,18.168-41.29,41.29c0,23.123,18.168,41.29,41.29,41.29 c23.123,0,41.29-18.168,41.29-41.29C477.968,314.717,459.8,296.549,436.677,296.549z"/> <path d="M420.161,354.355c-4.955,0-8.258-3.303-8.258-8.258c0-18.168,14.865-33.032,33.032-33.032c4.955,0,8.258,3.303,8.258,8.258 s-3.303,8.258-8.258,8.258c-9.084,0-16.516,7.432-16.516,16.516C428.419,351.052,425.116,354.355,420.161,354.355z"/> <path d="M7.258,503.001c-3.303,0-6.606-2.477-7.432-5.781c-1.652-4.129,0.826-9.084,4.955-10.735l379.871-132.129 c4.129-1.652,9.084,0.826,10.735,4.955c1.652,4.129-0.826,9.084-4.955,10.735L10.561,502.175 C8.91,503.001,8.084,503.001,7.258,503.001z"/> <rect x="112.096" y="65.194" transform="matrix(-0.8535 0.521 -0.521 -0.8535 422.0634 28.2624)" width="189.926" height="16.515"/> <rect x="140.166" y="246.816" transform="matrix(-0.8887 0.4585 -0.4585 -0.8887 653.8499 351.4199)" width="288.208" height="16.516"/> <rect x="247.153" y="-9.319" transform="matrix(-0.2305 0.9731 -0.9731 -0.2305 462.3158 -61.3389)" width="16.517" height="322.899"/> <rect x="183.976" y="85.969" transform="matrix(-0.8394 0.5435 -0.5435 -0.8394 543.0363 27.9983)" width="166.812" height="16.516"/> <rect x="253.366" y="112.153" transform="matrix(-0.8509 0.5253 -0.5253 -0.8509 658.3106 53.9863)" width="136.256" height="16.516"/> <rect x="316.841" y="137.184" transform="matrix(-0.8742 0.4855 -0.4855 -0.8742 751.1177 96.3083)" width="92.487" height="16.516"/> <rect x="207.709" y="59.487" transform="matrix(-0.254 0.9672 -0.9672 -0.254 454.1578 28.8134)" width="16.516" height="260.128"/> <rect x="172.813" y="121.068" transform="matrix(-0.3144 0.9493 -0.9493 -0.3144 451.7038 124.0089)" width="16.516" height="208.105"/> <rect x="148.044" y="206.216" transform="matrix(-0.3363 0.9418 -0.9418 -0.3363 461.0132 210.5791)" width="16.517" height="123.05"/> <rect x="195.532" y="284.989" transform="matrix(-0.8944 0.4472 -0.4472 -0.8944 704.9352 420.0802)" width="214.703" height="16.516"/> </g> </g>
</svg>